#!OML:ASF H:\Dans Jumps\Project 1\Capture day 1\Session 1\subject.ASF
:FULLY-SPECIFIED
:DEGREES
562
root 0.197658 17.8142 -1.94657 7.08278 0.0643989 -1.30555
lowerback -2.93282 -0.622105 -0.228704
upperback 3.13721 -0.89359 1.66666
thorax 4.917 -0.48459 1.78873
lowerneck -10.6455 0.743549 -1.65665
upperneck 38.465 1.44476 0.283715
head 15.2024 0.406823 0.640692
rclavicle -1.54058e-014 2.98177e-015
rhumerus -26.5199 -17.9361 -80.3221
rradius 22.8168
rwrist 34.0213
rhand -20.7242 -26.5287
rfingers 7.12502
rthumb 5.64064 -56.4336
lclavicle -1.54058e-014 2.98177e-015
lhumerus -21.4489 -2.49241 89.7762
lradius 17.2221
lwrist 2.87399
lhand -25.3655 -3.71297
lfingers 7.12502
lthumb 1.15855 26.2636
rfemur -14.1996 -2.88606 19.8428
rtibia 20.0207
rfoot -11.5396 -2.77739
rtoes 15.7809
lfemur -12.5687 6.58809 -17.2848
ltibia 16.0287
lfoot -8.75294 1.54051
ltoes 5.14793
563
root 0.19937 17.8142 -1.94552 7.08975 0.0519898 -1.30942
lowerback -2.93421 -0.624263 -0.222591
upperback 3.13635 -0.896818 1.66717
thorax 4.91691 -0.48598 1.78558
lowerneck -10.6606 0.745036 -1.65336
upperneck 38.4357 1.45136 0.269296
head 15.1916 0.408341 0.634889
rclavicle -8.44835e-015 -2.18663e-015
rhumerus -26.5275 -17.9409 -80.3371
rradius 22.8205
rwrist 34.0094
rhand -20.7231 -26.533
rfingers 7.12502
rthumb 5.64171 -56.4379
lclavicle -8.44835e-015 -2.18663e-015
lhumerus -21.4949 -2.51621 89.7985
lradius 17.174
lwrist 2.82014
lhand -25.2841 -3.59806
lfingers 7.12502
lthumb 1.23715 26.3781
rfemur -14.2031 -2.8768 19.841
rtibia 20.0171
rfoot -11.5391 -2.77706
rtoes 15.7699
lfemur -12.5733 6.60286 -17.2878
ltibia 16.0347
lfoot -8.76217 1.53848
ltoes 5.1644
564
root 0.201084 17.8142 -1.94436 7.09425 0.0376443 -1.31542
lowerback -2.93409 -0.626812 -0.214529
upperback 3.13538 -0.900705 1.66867
thorax 4.91586 -0.487642 1.78234
lowerneck -10.6743 0.747488 -1.65131
upperneck 38.408 1.46059 0.252573
head 15.1812 0.410457 0.628739
rclavicle 2.83268e-015 -2.127e-014
rhumerus -26.5339 -17.9541 -80.3492
rradius 22.82
rwrist 34.0091
rhand -20.7113 -26.5407
rfingers 7.12502
rthumb 5.65309 -56.4453
lclavicle 2.83268e-015 -2.127e-014
lhumerus -21.5397 -2.54819 89.8234
lradius 17.1294
lwrist 2.77594
lhand -25.2279 -3.52839
lfingers 7.12502
lthumb 1.29146 26.4474
rfemur -14.2029 -2.86604 19.8412
rtibia 20.0128
rfoot -11.54 -2.77585
rtoes 15.7642
lfemur -12.576 6.61743 -17.2883
ltibia 16.0437
lfoot -8.77297 1.54026
ltoes 5.16784
565
root 0.202763 17.8141 -1.94319 7.0988 0.0201465 -1.32233
lowerback -2.934 -0.629874 -0.206871
upperback 3.13484 -0.905314 1.67133
thorax 4.91532 -0.489706 1.78045
lowerneck -10.693 0.7522 -1.64664
upperneck 38.384 1.47496 0.229736
head 15.1739 0.414237 0.620415
rclavicle -6.26172e-015 1.09332e-014
rhumerus -26.5348 -17.9824 -80.3569
rradius 22.8102
rwrist 34.0301
rhand -20.6957 -26.5435
rfingers 7.12502
rthumb 5.66812 -56.4476
lclavicle -6.26172e-015 1.09332e-014
lhumerus -21.579 -2.58323 89.8497
lradius 17.0868
lwrist 2.73622
lhand -25.1969 -3.51124
lfingers 7.12502
lthumb 1.32138 26.4644
rfemur -14.2033 -2.85302 19.8423
rtibia 20.008
rfoot -11.5402 -2.7734
rtoes 15.7605
lfemur -12.5793 6.6299 -17.2875
ltibia 16.0545
lfoot -8.78371 1.54817
ltoes 5.16051
566
root 0.204417 17.814 -1.94187 7.10313 -0.000901066 -1.33085
lowerback -2.9357 -0.633415 -0.199271
upperback 3.13411 -0.91065 1.6757
thorax 4.91566 -0.492171 1.78032
lowerneck -10.7109 0.75853 -1.64384
upperneck 38.3615 1.49298 0.204916
head 15.1672 0.418997 0.612157
rclavicle 3.57812e-015 -1.47101e-014
rhumerus -26.5359 -18.0014 -80.3653
rradius 22.8015
rwrist 34.0505
rhand -20.6783 -26.5449
rfingers 7.12502
rthumb 5.68494 -56.4486
lclavicle 3.57812e-015 -1.47101e-014
lhumerus -21.6172 -2.62164 89.8784
lradius 17.0498
lwrist 2.70027
lhand -25.1877 -3.53426
lfingers 7.12502
lthumb 1.33026 26.4413
rfemur -14.2037 -2.83768 19.8448
rtibia 20.0036
rfoot -11.5401 -2.76969
rtoes 15.757
lfemur -12.5817 6.64283 -17.2849
ltibia 16.0657
lfoot -8.79413 1.55925
ltoes 5.14511
567
root 0.206017 17.8139 -1.94045 7.10719 -0.0240433 -1.33898
lowerback -2.93819 -0.638139 -0.19482
upperback 3.13357 -0.9175 1.682
thorax 4.9168 -0.495543 1.78383
lowerneck -10.7284 0.767531 -1.64307
upperneck 38.3399 1.5167 0.177076
head 15.1608 0.425449 0.60388
rclavicle 3.08116e-015 6.95746e-015
rhumerus -26.5336 -18.0149 -80.3737
rradius 22.7914
rwrist 34.0744
rhand -20.6638 -26.5381
rfingers 7.12502
rthumb 5.69894 -56.4414
lclavicle 3.08116e-015 6.95746e-015
lhumerus -21.654 -2.65723 89.909
lradius 17.0174
lwrist 2.66116
lhand -25.1969 -3.59279
lfingers 7.12502
lthumb 1.32144 26.3829
rfemur -14.2045 -2.81994 19.8471
rtibia 20.0001
rfoot -11.5403 -2.76717
rtoes 15.7567
lfemur -12.5832 6.65408 -17.2823
ltibia 16.0767
lfoot -8.80288 1.57406
ltoes 5.12827
568
root 0.207617 17.8137 -1.93894 7.11089 -0.0497305 -1.3439
lowerback -2.94337 -0.642365 -0.194003
upperback 3.13438 -0.923486 1.68718
thorax 4.92088 -0.498614 1.78826
lowerneck -10.7472 0.777154 -1.6402
upperneck 38.3195 1.54185 0.146529
head 15.1553 0.432432 0.594336
rclavicle -6.85807e-015 8.34896e-015
rhumerus -26.5283 -18.0218 -80.3854
rradius 22.7821
rwrist 34.0946
rhand -20.6489 -26.5295
rfingers 7.12502
rthumb 5.71331 -56.4324
lclavicle -6.85807e-015 8.34896e-015
lhumerus -21.6852 -2.69703 89.9404
lradius 16.9874
lwrist 2.62156
lhand -25.2186 -3.67073
lfingers 7.12502
lthumb 1.30042 26.3051
rfemur -14.2058 -2.80557 19.8457
rtibia 19.9978
rfoot -11.5416 -2.75859
rtoes 15.754
lfemur -12.5834 6.66656 -17.2834
ltibia 16.0872
lfoot -8.81147 1.58958
ltoes 5.11925
569
root 0.209149 17.8135 -1.93731 7.11451 -0.0779697 -1.34855
lowerback -2.95064 -0.645938 -0.194484
upperback 3.13597 -0.928546 1.69203
thorax 4.92698 -0.501277 1.79314
lowerneck -10.7676 0.786577 -1.63856
upperneck 38.3005 1.56635 0.117884
head 15.1509 0.439191 0.585742
rclavicle -1.19271e-015 2.38542e-015
rhumerus -26.52 -18.0207 -80.4011
rradius 22.7742
rwrist 34.1103
rhand -20.6347 -26.5211
rfingers 7.12502
rthumb 5.72706 -56.4237
lclavicle -1.19271e-015 2.38542e-015
lhumerus -21.713 -2.74534 89.9729
lradius 16.9606
lwrist 2.58603
lhand -25.2469 -3.7558
lfingers 7.12502
lthumb 1.27308 26.2201
rfemur -14.2079 -2.7904 19.8443
rtibia 19.9971
rfoot -11.5437 -2.74916
rtoes 15.7516
lfemur -12.5821 6.67942 -17.2845
ltibia 16.0965
lfoot -8.81935 1.6079
ltoes 5.10692
